<svg xmlns="http://www.w3.org/2000/svg" width="440" height="72" viewBox="0 0 440 72"><defs><g id="flower"><ellipse cx="0" cy="-9" rx="4.8" ry="8.4" fill="#e32732" stroke="#921d29" stroke-width=".55" transform="rotate(0)"/><ellipse cx="0" cy="-9" rx="4.8" ry="8.4" fill="#e32732" stroke="#921d29" stroke-width=".55" transform="rotate(45)"/><ellipse cx="0" cy="-9" rx="4.8" ry="8.4" fill="#e32732" stroke="#921d29" stroke-width=".55" transform="rotate(90)"/><ellipse cx="0" cy="-9" rx="4.8" ry="8.4" fill="#e32732" stroke="#921d29" stroke-width=".55" transform="rotate(135)"/><ellipse cx="0" cy="-9" rx="4.8" ry="8.4" fill="#e32732" stroke="#921d29" stroke-width=".55" transform="rotate(180)"/><ellipse cx="0" cy="-9" rx="4.8" ry="8.4" fill="#e32732" stroke="#921d29" stroke-width=".55" transform="rotate(225)"/><ellipse cx="0" cy="-9" rx="4.8" ry="8.4" fill="#e32732" stroke="#921d29" stroke-width=".55" transform="rotate(270)"/><ellipse cx="0" cy="-9" rx="4.8" ry="8.4" fill="#e32732" stroke="#921d29" stroke-width=".55" transform="rotate(315)"/><circle r="4" fill="#ffbb39"/><circle r="1.7" fill="#9c3913"/></g><g id="pink"><ellipse cx="0" cy="-9" rx="4.8" ry="8.4" fill="#dc2471" stroke="#921d29" stroke-width=".55" transform="rotate(0)"/><ellipse cx="0" cy="-9" rx="4.8" ry="8.4" fill="#dc2471" stroke="#921d29" stroke-width=".55" transform="rotate(45)"/><ellipse cx="0" cy="-9" rx="4.8" ry="8.4" fill="#dc2471" stroke="#921d29" stroke-width=".55" transform="rotate(90)"/><ellipse cx="0" cy="-9" rx="4.8" ry="8.4" fill="#dc2471" stroke="#921d29" stroke-width=".55" transform="rotate(135)"/><ellipse cx="0" cy="-9" rx="4.8" ry="8.4" fill="#dc2471" stroke="#921d29" stroke-width=".55" transform="rotate(180)"/><ellipse cx="0" cy="-9" rx="4.8" ry="8.4" fill="#dc2471" stroke="#921d29" stroke-width=".55" transform="rotate(225)"/><ellipse cx="0" cy="-9" rx="4.8" ry="8.4" fill="#dc2471" stroke="#921d29" stroke-width=".55" transform="rotate(270)"/><ellipse cx="0" cy="-9" rx="4.8" ry="8.4" fill="#dc2471" stroke="#921d29" stroke-width=".55" transform="rotate(315)"/><circle r="4" fill="#ffc249"/><circle r="1.5" fill="#aa4123"/></g><g id="leaf"><path d="M0 0C-1-13 8-22 17-25 18-12 11-2 0 0Z" fill="#17643a" stroke="#165b32" stroke-width=".8"/><path d="M1-1 13-20" fill="none" stroke="#9bab54" stroke-width=".8"/></g><g id="bud"><path d="M0 4C-13-2-12-13-8-20L0-13 7-20C13-10 12 0 0 4Z" fill="#f33c29" stroke="#a22026" stroke-width="1"/><path d="M0 4C-6-3-5-12 0-25 7-12 7-4 0 4Z" fill="#c91635"/><path d="m-7 2 7 6 7-6" fill="#216c3b"/></g></defs><path d="M0 46C36 69 58 8 94 28S144 67 183 38 227 8 268 35 316 70 351 32 405 16 440 46" fill="none" stroke="#d79626" stroke-width="2"/><path d="M0 25C37 7 61 58 94 47S144 10 183 33 227 63 268 39 316 8 351 40 405 61 440 25" fill="none" stroke="#b88628" stroke-width="1.4"/><g transform="translate(24 36)"><use href="#flower" transform="scale(.88)"/><use href="#leaf" transform="translate(15 7) rotate(24) scale(.85)"/><use href="#leaf" transform="translate(26 0) rotate(192) scale(.7)"/><use href="#leaf" transform="translate(39 -5) rotate(-8) scale(.68)"/><use href="#leaf" transform="translate(52 8) rotate(170) scale(.62)"/><use href="#bud" transform="translate(60 -3) rotate(22) scale(.58)"/><circle cx="38" cy="19" r="2.7" fill="#ee8120"/><circle cx="52" cy="-21" r="2.6" fill="#d92135"/></g><g transform="translate(112 36)"><use href="#pink" transform="scale(.88)"/><use href="#leaf" transform="translate(15 7) rotate(24) scale(.85)"/><use href="#leaf" transform="translate(26 0) rotate(192) scale(.7)"/><use href="#leaf" transform="translate(39 -5) rotate(-8) scale(.68)"/><use href="#leaf" transform="translate(52 8) rotate(170) scale(.62)"/><use href="#bud" transform="translate(60 -3) rotate(22) scale(.58)"/><circle cx="38" cy="19" r="2.7" fill="#ee8120"/><circle cx="52" cy="-21" r="2.6" fill="#d92135"/></g><g transform="translate(200 36)"><use href="#flower" transform="scale(.88)"/><use href="#leaf" transform="translate(15 7) rotate(24) scale(.85)"/><use href="#leaf" transform="translate(26 0) rotate(192) scale(.7)"/><use href="#leaf" transform="translate(39 -5) rotate(-8) scale(.68)"/><use href="#leaf" transform="translate(52 8) rotate(170) scale(.62)"/><use href="#bud" transform="translate(60 -3) rotate(22) scale(.58)"/><circle cx="38" cy="19" r="2.7" fill="#ee8120"/><circle cx="52" cy="-21" r="2.6" fill="#d92135"/></g><g transform="translate(288 36)"><use href="#pink" transform="scale(.88)"/><use href="#leaf" transform="translate(15 7) rotate(24) scale(.85)"/><use href="#leaf" transform="translate(26 0) rotate(192) scale(.7)"/><use href="#leaf" transform="translate(39 -5) rotate(-8) scale(.68)"/><use href="#leaf" transform="translate(52 8) rotate(170) scale(.62)"/><use href="#bud" transform="translate(60 -3) rotate(22) scale(.58)"/><circle cx="38" cy="19" r="2.7" fill="#ee8120"/><circle cx="52" cy="-21" r="2.6" fill="#d92135"/></g><g transform="translate(376 36)"><use href="#flower" transform="scale(.88)"/><use href="#leaf" transform="translate(15 7) rotate(24) scale(.85)"/><use href="#leaf" transform="translate(26 0) rotate(192) scale(.7)"/><use href="#leaf" transform="translate(39 -5) rotate(-8) scale(.68)"/><use href="#leaf" transform="translate(52 8) rotate(170) scale(.62)"/><use href="#bud" transform="translate(60 -3) rotate(22) scale(.58)"/><circle cx="38" cy="19" r="2.7" fill="#ee8120"/><circle cx="52" cy="-21" r="2.6" fill="#d92135"/></g></svg>